<?xml version="1.0" encoding="UTF-8"?>
<svg width="24px" height="22px" viewBox="0 0 24 22" version="1.1" xmlns="http://www.w3.org/2000/svg" xmlns:xlink="http://www.w3.org/1999/xlink">
    <title>noun_Diamond_3673853(1)</title>
    <g id="Page-1" stroke="none" stroke-width="1" fill="none" fill-rule="evenodd">
        <g id="noun_Diamond_3673853(1)" fill="#FFFFFF" fill-rule="nonzero">
            <path d="M23.8666667,4.99466667 C23.864,4.98933333 23.856,4.98666667 23.8533333,4.97866667 C23.848,4.968 23.848,4.952 23.84,4.94133333 L20.504,0.248 C20.496,0.237333333 20.4853333,0.234666667 20.48,0.224 C20.4595957,0.225812099 20.439071,0.225812099 20.4186667,0.224 C20.3973333,0.208 20.3786667,0.192 20.3546667,0.181333333 C20.339564,0.182047312 20.324436,0.182047312 20.3093333,0.181333333 C20.2986667,0.181333333 20.288,0.173333333 20.2746667,0.173333333 L3.84,0.173333333 L3.808,0.178666667 C3.776,0.181333333 3.74933333,0.186666667 3.72,0.197333333 L3.648,0.224 C3.624,0.237333333 3.60266667,0.250666667 3.58133333,0.269333333 C3.60173762,0.267521234 3.62226238,0.267521234 3.64266667,0.269333333 C3.63466667,0.277333333 3.624,0.282666667 3.61866667,0.293333333 L0.162666667,4.944 L0.154666667,4.968 C0.146666667,4.97866667 0.136,4.984 0.130666667,4.99466667 C0.114666667,5.02666667 0.117333333,5.06133333 0.109333333,5.096 C0.101333333,5.12533333 0.0906666667,5.15466667 0.0906666667,5.184 C0.0906666667,5.232 0.104,5.272 0.117333333,5.31733333 C0.125333333,5.33866667 0.12,5.36266667 0.130666667,5.384 C0.133333333,5.392 0.144,5.39466667 0.146666667,5.40266667 C0.152,5.41333333 0.152,5.42666667 0.16,5.43733333 L11.6506667,21.6186667 L11.6693333,21.6346667 C11.7226667,21.6586667 11.7813333,21.6773333 11.8453333,21.6773333 C11.9093333,21.6773333 11.9653333,21.6586667 12.0213333,21.6346667 L12.0613333,21.6133333 C12.104,21.5866667 12.144,21.5546667 12.176,21.5146667 L12.1946667,21.4986667 L23.84,5.43733333 C23.8453333,5.42933333 23.8426667,5.42133333 23.848,5.416 C23.856,5.40533333 23.8693333,5.4 23.8746667,5.38666667 C23.8933333,5.352 23.8906667,5.312 23.8986667,5.27733333 C23.904,5.25066667 23.9146667,5.22933333 23.9146667,5.20266667 C23.9173333,5.14933333 23.9013333,5.104 23.8826667,5.05333333 C23.872,5.032 23.8773333,5.01066667 23.8666667,4.99466667 Z M14.3813333,0.922666667 L15.2906667,4.76266667 L8.704,4.76266667 L9.61066667,0.922666667 L14.3813333,0.922666667 Z M4.05866667,0.922666667 L8.736,0.922666667 L7.82933333,4.76266667 L1.336,4.76266667 L4.05866667,0.922666667 Z M1.33333333,5.616 L7.82933333,5.616 L11.0773333,19.3386667 L1.33333333,5.616 Z M11.9973333,19.5173333 L8.70666667,5.616 L15.288,5.616 L11.9973333,19.5173333 Z M12.9173333,19.3386667 L16.1653333,5.616 L22.6613333,5.616 L12.9173333,19.3386667 L12.9173333,19.3386667 Z M16.168,4.76266667 L15.2613333,0.922666667 L19.9386667,0.922666667 L22.6666667,4.76266667 L16.168,4.76266667 L16.168,4.76266667 Z" id="Shape"></path>
        </g>
    </g>
</svg>